# xmcd CD database file
#
# Track frame offsets:
#	150
#	15037
#	28487
#	40137
#	53887
#	71237
#	88612
#	101550
#	118850
#	137025
#	155912
#	168312
#	185650
#	200437
#	218800
#
# Disc length: 3156 seconds
#
# Revision: 0
# Processed by: cddbd v1.5.2PL0 Copyright (c) Steve Scherf et al.
# Submitted via: CDex 1.70beta2
#
DISCID=d90c520f
DTITLE=Carpenters - Greatest Hits
DYEAR=1995
DGENRE=Blues
TTITLE0=Touch me When We're Dancing
TTITLE1=Top Of he World
TTITLE2=For All We Know
TTITLE3=Goodbye To Love
TTITLE4=Jambaalaya
TTITLE5=Only Yesterday
TTITLE6=Pleaase Mr.Postman
TTITLE7=Rainy Days And Mondays
TTITLE8=Superstar
TTITLE9=Calling Occupants Of Interplanetery Craft
TTITLE10=Sweet Sweet Smile
TTITLE11=Close To You
TTITLE12=We're Only Just Begun
TTITLE13=Ticket To Ride
TTITLE14=Yesterday OnceMore
EXTD=YEAR: 1995
EXTT0=
EXTT1=
EXTT2=
EXTT3=
EXTT4=
EXTT5=
EXTT6=
EXTT7=
EXTT8=
EXTT9=
EXTT10=
EXTT11=
EXTT12=
EXTT13=
EXTT14=
PLAYORDER=
